<svg xmlns="http://www.w3.org/2000/svg" width="154" height="50" viewBox="0 0 154 50" version="1.1"><path d="M 8.639 11.694 C 8.288 12.046, 8 17.208, 8 23.167 C 8 32.130, 8.259 34, 9.500 34 C 10.633 34, 11 32.778, 11 29 L 11 24 17 24 L 23 24 23 29 C 23 31.750, 23.450 34, 24 34 C 24.609 34, 25 29.500, 25 22.500 C 25 15.500, 24.609 11, 24 11 C 23.450 11, 23 13.250, 23 16 L 23 21 17 21 L 11 21 11 16.559 C 11 12.326, 10.022 10.311, 8.639 11.694 M 35.476 12.396 C 31.801 13.997, 30 17.640, 30 23.470 C 30 31.627, 37.144 36.638, 44.431 33.593 C 48.903 31.725, 51 28.416, 51 23.228 C 51 17.487, 48.790 13.471, 44.881 12.108 C 40.861 10.707, 39.238 10.757, 35.476 12.396 M 53.667 11.667 C 52.172 13.161, 53.191 14, 56.500 14 L 60 14 60 24 C 60 32.222, 60.267 34, 61.500 34 C 62.733 34, 63 32.222, 63 24 L 63 14 66.500 14 C 68.944 14, 70 13.548, 70 12.500 C 70 11.294, 68.463 11, 62.167 11 C 57.858 11, 54.033 11.300, 53.667 11.667 M 82.001 13.726 C 79.423 17.003, 80.995 18.005, 83.999 15.001 C 86.360 12.640, 88.767 12.676, 90.290 15.095 C 91.868 17.601, 90.439 21.075, 85.533 26.661 C 83.040 29.500, 81 32.313, 81 32.911 C 81 33.585, 83.480 34, 87.500 34 C 91.167 34, 94 33.564, 94 33 C 94 32.450, 91.920 32, 89.378 32 C 84.763 32, 84.758 31.997, 86.406 29.750 C 91.349 23.011, 94 18.372, 94 16.459 C 94 10.905, 85.706 9.016, 82.001 13.726 M 100.780 12.064 C 98.434 13.430, 96.671 20.538, 97.456 25.458 C 98.431 31.568, 100.427 34, 104.466 34 C 109.425 34, 111 31.219, 111 22.466 C 111 16.714, 110.615 14.964, 108.961 13.189 C 106.791 10.859, 103.599 10.420, 100.780 12.064 M 116.001 13.726 C 113.423 17.003, 114.995 18.005, 117.999 15.001 C 120.360 12.640, 122.767 12.676, 124.290 15.095 C 125.868 17.601, 124.439 21.075, 119.533 26.661 C 117.040 29.500, 115 32.313, 115 32.911 C 115 33.585, 117.480 34, 121.500 34 C 125.167 34, 128 33.564, 128 33 C 128 32.450, 125.920 32, 123.378 32 C 118.763 32, 118.758 31.997, 120.406 29.750 C 125.349 23.011, 128 18.372, 128 16.459 C 128 10.905, 119.706 9.016, 116.001 13.726 M 134.422 13.750 C 134.083 15.262, 133.436 17.962, 132.984 19.750 C 132.127 23.134, 133.426 24.174, 135.685 21.915 C 137.469 20.131, 141.332 21.318, 142.907 24.135 C 144.228 26.496, 144.203 27.041, 142.667 29.385 C 140.582 32.567, 136.547 32.891, 135 30 C 133.759 27.682, 132 27.347, 132 29.429 C 132 34.071, 141.571 35.878, 144.443 31.777 C 146.593 28.709, 146.446 22.714, 144.171 20.655 C 143.165 19.745, 140.884 19, 139.102 19 C 136.313 19, 135.905 18.686, 136.180 16.750 C 136.446 14.880, 137.217 14.448, 140.750 14.193 C 143.644 13.983, 145 13.425, 145 12.443 C 145 11.379, 143.692 11, 140.019 11 C 135.401 11, 134.993 11.201, 134.422 13.750 M 101.950 14.561 C 99.826 17.119, 99.479 26.556, 101.400 29.488 C 104.795 34.669, 109 30.803, 109 22.500 C 109 14.908, 105.207 10.636, 101.950 14.561 M 35 16 C 29.926 21.074, 33.505 32, 40.240 32 C 44.500 32, 46.698 30.444, 47.997 26.508 C 49.390 22.290, 47.887 16.545, 44.986 14.992 C 41.944 13.365, 37.152 13.848, 35 16" stroke="none" fill="#c86625" fill-rule="evenodd"/><path d="M 0 25.006 L 0 50.012 77.250 49.756 L 154.500 49.500 154.767 24.750 L 155.035 -0 77.517 -0 L 0 0 0 25.006 M 0.434 25.500 C 0.433 39.250, 0.574 45.014, 0.747 38.308 C 0.919 31.603, 0.920 20.353, 0.748 13.308 C 0.576 6.264, 0.434 11.750, 0.434 25.500 M 8.639 11.694 C 8.288 12.046, 8 17.208, 8 23.167 C 8 32.130, 8.259 34, 9.500 34 C 10.633 34, 11 32.778, 11 29 L 11 24 17 24 L 23 24 23 29 C 23 31.750, 23.450 34, 24 34 C 24.609 34, 25 29.500, 25 22.500 C 25 15.500, 24.609 11, 24 11 C 23.450 11, 23 13.250, 23 16 L 23 21 17 21 L 11 21 11 16.559 C 11 12.326, 10.022 10.311, 8.639 11.694 M 35.476 12.396 C 31.801 13.997, 30 17.640, 30 23.470 C 30 31.627, 37.144 36.638, 44.431 33.593 C 48.903 31.725, 51 28.416, 51 23.228 C 51 17.487, 48.790 13.471, 44.881 12.108 C 40.861 10.707, 39.238 10.757, 35.476 12.396 M 53.667 11.667 C 52.172 13.161, 53.191 14, 56.500 14 L 60 14 60 24 C 60 32.222, 60.267 34, 61.500 34 C 62.733 34, 63 32.222, 63 24 L 63 14 66.500 14 C 68.944 14, 70 13.548, 70 12.500 C 70 11.294, 68.463 11, 62.167 11 C 57.858 11, 54.033 11.300, 53.667 11.667 M 82.001 13.726 C 79.423 17.003, 80.995 18.005, 83.999 15.001 C 86.360 12.640, 88.767 12.676, 90.290 15.095 C 91.868 17.601, 90.439 21.075, 85.533 26.661 C 83.040 29.500, 81 32.313, 81 32.911 C 81 33.585, 83.480 34, 87.500 34 C 91.167 34, 94 33.564, 94 33 C 94 32.450, 91.920 32, 89.378 32 C 84.763 32, 84.758 31.997, 86.406 29.750 C 91.349 23.011, 94 18.372, 94 16.459 C 94 10.905, 85.706 9.016, 82.001 13.726 M 100.780 12.064 C 98.434 13.430, 96.671 20.538, 97.456 25.458 C 98.431 31.568, 100.427 34, 104.466 34 C 109.425 34, 111 31.219, 111 22.466 C 111 16.714, 110.615 14.964, 108.961 13.189 C 106.791 10.859, 103.599 10.420, 100.780 12.064 M 116.001 13.726 C 113.423 17.003, 114.995 18.005, 117.999 15.001 C 120.360 12.640, 122.767 12.676, 124.290 15.095 C 125.868 17.601, 124.439 21.075, 119.533 26.661 C 117.040 29.500, 115 32.313, 115 32.911 C 115 33.585, 117.480 34, 121.500 34 C 125.167 34, 128 33.564, 128 33 C 128 32.450, 125.920 32, 123.378 32 C 118.763 32, 118.758 31.997, 120.406 29.750 C 125.349 23.011, 128 18.372, 128 16.459 C 128 10.905, 119.706 9.016, 116.001 13.726 M 134.422 13.750 C 134.083 15.262, 133.436 17.962, 132.984 19.750 C 132.127 23.134, 133.426 24.174, 135.685 21.915 C 137.469 20.131, 141.332 21.318, 142.907 24.135 C 144.228 26.496, 144.203 27.041, 142.667 29.385 C 140.582 32.567, 136.547 32.891, 135 30 C 133.759 27.682, 132 27.347, 132 29.429 C 132 34.071, 141.571 35.878, 144.443 31.777 C 146.593 28.709, 146.446 22.714, 144.171 20.655 C 143.165 19.745, 140.884 19, 139.102 19 C 136.313 19, 135.905 18.686, 136.180 16.750 C 136.446 14.880, 137.217 14.448, 140.750 14.193 C 143.644 13.983, 145 13.425, 145 12.443 C 145 11.379, 143.692 11, 140.019 11 C 135.401 11, 134.993 11.201, 134.422 13.750 M 101.950 14.561 C 99.826 17.119, 99.479 26.556, 101.400 29.488 C 104.795 34.669, 109 30.803, 109 22.500 C 109 14.908, 105.207 10.636, 101.950 14.561 M 35 16 C 29.926 21.074, 33.505 32, 40.240 32 C 44.500 32, 46.698 30.444, 47.997 26.508 C 49.390 22.290, 47.887 16.545, 44.986 14.992 C 41.944 13.365, 37.152 13.848, 35 16" stroke="none" fill="#fbf8f8" fill-rule="evenodd"/></svg>