<?xml version="1.0" encoding="UTF-8"?>
<!DOCTYPE svg PUBLIC "-//W3C//DTD SVG 1.1//EN" "http://www.w3.org/Graphics/SVG/1.1/DTD/svg11.dtd">
<svg xmlns="http://www.w3.org/2000/svg" version="1.1" width="154px" height="50px" style="shape-rendering:geometricPrecision; text-rendering:geometricPrecision; image-rendering:optimizeQuality; fill-rule:evenodd; clip-rule:evenodd" xmlns:xlink="http://www.w3.org/1999/xlink">
<g><path style="opacity:1" fill="#fefcfb" d="M -0.5,-0.5 C 50.8333,-0.5 102.167,-0.5 153.5,-0.5C 153.5,16.1667 153.5,32.8333 153.5,49.5C 102.167,49.5 50.8333,49.5 -0.5,49.5C -0.5,32.8333 -0.5,16.1667 -0.5,-0.5 Z"/></g>
<g><path style="opacity:1" fill="#c86224" d="M 83.5,10.5 C 90.3272,9.17373 93.4939,11.8404 93,18.5C 90.9039,23.0268 88.0706,27.0268 84.5,30.5C 87.5,31.1667 90.5,31.8333 93.5,32.5C 89.2172,33.4922 84.8839,33.8256 80.5,33.5C 80.3505,32.448 80.5172,31.448 81,30.5C 85.436,26.6074 88.6027,21.9407 90.5,16.5C 90.888,14.0452 89.888,12.7119 87.5,12.5C 84.8132,12.8408 82.8132,14.1742 81.5,16.5C 81.1667,16 80.8333,15.5 80.5,15C 81.3146,13.3566 82.3146,11.8566 83.5,10.5 Z"/></g>
<g><path style="opacity:1" fill="#ca672b" d="M 101.5,10.5 C 105.273,9.82243 108.106,11.1558 110,14.5C 110.667,19.1667 110.667,23.8333 110,28.5C 108.058,33.7047 104.558,34.8714 99.5,32C 94.977,24.2489 95.6437,17.0823 101.5,10.5 Z"/></g>
<g><path style="opacity:1" fill="#c86224" d="M 117.5,10.5 C 124.327,9.17373 127.494,11.8404 127,18.5C 124.904,23.0268 122.071,27.0268 118.5,30.5C 121.5,31.1667 124.5,31.8333 127.5,32.5C 123.217,33.4922 118.884,33.8256 114.5,33.5C 114.351,32.448 114.517,31.448 115,30.5C 119.436,26.6074 122.603,21.9407 124.5,16.5C 124.888,14.0452 123.888,12.7119 121.5,12.5C 118.813,12.8408 116.813,14.1742 115.5,16.5C 115.167,16 114.833,15.5 114.5,15C 115.315,13.3566 116.315,11.8566 117.5,10.5 Z"/></g>
<g><path style="opacity:1" fill="#c76120" d="M 141.5,10.5 C 143.446,15.3958 144.113,20.7291 143.5,26.5C 148.833,27.1667 148.833,27.8333 143.5,28.5C 142.833,35.1667 142.167,35.1667 141.5,28.5C 138.167,28.5 134.833,28.5 131.5,28.5C 131.343,27.1266 131.51,25.7932 132,24.5C 135.424,19.9776 138.591,15.311 141.5,10.5 Z"/></g>
<g><path style="opacity:1" fill="#d4824e" d="M 10.5,11.5 C 8.53672,18.4238 7.87006,25.7572 8.5,33.5C 7.50797,26.0182 7.17464,18.3516 7.5,10.5C 8.79105,10.2627 9.79105,10.596 10.5,11.5 Z"/></g>
<g><path style="opacity:1" fill="#c86220" d="M 52.5,11.5 C 58.2055,11.1712 63.8722,11.5046 69.5,12.5C 67.2573,13.4742 64.924,13.8076 62.5,13.5C 62.5,20.1667 62.5,26.8333 62.5,33.5C 61.5,33.5 60.5,33.5 59.5,33.5C 59.5,26.8333 59.5,20.1667 59.5,13.5C 56.6122,14.0102 54.2789,13.3435 52.5,11.5 Z"/></g>
<g><path style="opacity:1" fill="#c65c15" d="M 10.5,11.5 C 10.5,14.5 10.5,17.5 10.5,20.5C 14.5,20.5 18.5,20.5 22.5,20.5C 22.1826,17.4281 22.5159,14.4281 23.5,11.5C 23.8333,15.1667 24.1667,18.8333 24.5,22.5C 24.4888,26.5652 23.8222,30.2319 22.5,33.5C 22.5,29.8333 22.5,26.1667 22.5,22.5C 18.2984,22.1832 14.2984,22.5166 10.5,23.5C 11.069,27.3293 10.4023,30.6627 8.5,33.5C 7.87006,25.7572 8.53672,18.4238 10.5,11.5 Z"/></g>
<g><path style="opacity:1" fill="#fcf7f5" d="M 102.5,12.5 C 107.337,13.6406 109.337,16.8072 108.5,22C 109.244,26.342 107.744,29.5087 104,31.5C 100.256,29.5087 98.7559,26.342 99.5,22C 99.1094,18.329 100.109,15.1623 102.5,12.5 Z"/></g>
<g><path style="opacity:1" fill="#c96422" d="M 36.5,10.5 C 48.1247,10.3926 52.6247,16.0593 50,27.5C 48.8333,30 47,31.8333 44.5,33C 32.5542,34.7174 27.7209,29.5507 30,17.5C 31.0183,13.9853 33.1849,11.652 36.5,10.5 Z"/></g>
<g><path style="opacity:1" fill="#fdf8f5" d="M 36.5,13.5 C 45.6391,12.4717 49.4724,16.4717 48,25.5C 45.983,30.9242 42.1497,32.7575 36.5,31C 29.8588,25.0392 29.8588,19.2059 36.5,13.5 Z"/></g>
<g><path style="opacity:1" fill="#e8bba0" d="M 10.5,23.5 C 14.2984,22.5166 18.2984,22.1832 22.5,22.5C 22.5,26.1667 22.5,29.8333 22.5,33.5C 21.5206,30.3752 21.1872,27.0419 21.5,23.5C 17.8333,23.5 14.1667,23.5 10.5,23.5 Z"/></g>
<g><path style="opacity:1" fill="#f4e1d9" d="M 140.5,15.5 C 141.482,18.9619 141.815,22.6286 141.5,26.5C 138.813,26.6641 136.146,26.4974 133.5,26C 136.226,22.7007 138.559,19.2007 140.5,15.5 Z"/></g>
</svg>
